<?xml version="1.0" standalone="no"?>
<!DOCTYPE svg PUBLIC "-//W3C//DTD SVG 20010904//EN"
 "http://www.w3.org/TR/2001/REC-SVG-20010904/DTD/svg10.dtd">
<svg version="1.0" xmlns="http://www.w3.org/2000/svg"
 width="500.000000pt" height="500.000000pt" viewBox="0 0 500.000000 500.000000"
 preserveAspectRatio="xMidYMid meet">

<g transform="translate(0.000000,500.000000) scale(0.100000,-0.100000)"
fill="#000000" stroke="none">
<path d="M0 4437 c0 -485 2 -564 14 -564 8 0 14 3 14 6 -3 15 16 41 30 41 8 0
12 3 9 7 -10 10 24 43 37 36 6 -3 8 -3 4 2 -5 5 1 14 12 22 11 8 20 21 20 29
0 8 7 14 15 14 8 0 15 4 15 10 0 5 5 9 12 7 6 -1 15 9 19 23 4 14 7 18 8 10 1
-8 10 -1 21 18 11 17 25 32 30 32 6 0 8 5 5 10 -3 6 -1 10 5 10 6 0 8 5 5 10
-3 6 -2 10 4 10 5 0 12 -6 14 -12 3 -7 6 1 6 17 1 20 4 26 10 17 6 -11 11 -10
25 3 9 9 16 21 16 26 0 6 5 7 10 4 6 -3 10 2 11 12 0 16 1 16 9 -2 9 -19 9
-19 16 3 7 25 15 27 33 10 10 -11 11 -9 5 6 -6 15 -4 18 9 13 8 -3 18 -1 21 6
2 7 5 4 5 -6 1 -10 6 -15 11 -12 6 4 8 11 5 16 -4 5 -1 9 5 9 7 0 10 -6 8 -12
-3 -7 4 -17 15 -23 11 -5 22 -16 23 -23 1 -7 0 -8 -3 -2 -2 5 -9 7 -15 4 -6
-4 -14 -1 -18 6 -6 10 -13 9 -31 -4 l-24 -17 28 7 c15 3 27 2 27 -3 0 -18 40
-7 56 15 12 18 12 21 1 16 -9 -3 -17 3 -20 16 -3 14 -10 19 -17 15 -9 -6 -9
-2 -1 14 7 11 17 21 24 21 8 0 8 -3 -2 -9 -12 -8 -12 -12 0 -29 8 -10 19 -21
24 -23 6 -2 9 -9 9 -16 -1 -8 13 -12 41 -11 38 0 41 2 37 24 -2 14 0 24 7 24
6 0 11 -8 11 -17 0 -15 2 -14 16 3 15 18 15 18 11 -4 -4 -18 -3 -21 7 -13 7 6
17 7 22 3 4 -4 2 2 -6 12 -10 13 -10 17 -2 12 7 -4 12 -2 12 4 0 7 7 5 16 -4
19 -20 28 -20 21 -2 -4 10 2 13 19 12 27 -1 33 -16 7 -17 -11 0 -13 -2 -5 -6
7 -3 24 2 38 11 13 9 29 14 34 11 6 -3 7 1 4 10 -5 11 -2 14 10 9 9 -3 16 -1
16 6 0 6 4 9 9 6 5 -4 12 0 14 6 4 10 6 10 6 0 1 -10 6 -10 22 -1 15 8 19 8
15 0 -4 -6 -2 -11 3 -11 6 0 11 4 11 9 0 6 9 8 19 6 11 -2 25 3 31 10 6 8 19
11 27 8 12 -5 14 -3 8 8 -6 11 -5 12 6 2 17 -17 29 -16 29 0 0 9 15 13 50 14
28 0 53 3 57 6 3 4 31 7 60 7 37 0 52 4 47 11 -4 8 -1 8 12 1 19 -10 26 -12
44 -12 29 0 -1 -50 -165 -280 -152 -212 -173 -243 -212 -319 -19 -36 -47 -83
-62 -106 -15 -22 -66 -98 -114 -170 -134 -201 -169 -253 -206 -301 l-34 -44
-83 0 c-45 0 -89 3 -98 6 -16 6 -23 44 -8 44 4 0 7 16 6 36 -2 25 2 34 11 30
9 -3 12 3 8 25 -2 18 0 29 8 29 8 0 8 4 -1 15 -10 12 -9 15 4 15 10 0 14 5 11
10 -3 6 -1 10 6 10 8 0 7 5 -2 17 -12 15 -12 16 2 11 12 -5 18 0 22 18 4 21 2
23 -12 12 -9 -7 -13 -8 -9 -4 4 5 3 15 -2 22 -8 9 -6 12 6 10 9 0 19 6 21 14
4 13 3 13 -6 0 -9 -12 -11 -10 -11 10 0 15 4 30 10 36 5 5 11 20 13 34 2 13
12 26 22 30 10 3 -10 6 -44 6 -35 0 -58 -2 -52 -4 14 -5 14 -42 1 -42 -5 0
-10 -7 -10 -15 0 -8 -6 -15 -12 -15 -9 0 -8 -4 2 -10 14 -9 7 -14 -13 -11 -5
1 -5 -3 -2 -9 4 -6 -1 -21 -12 -32 -18 -21 -18 -21 2 -15 19 7 19 7 1 -8 -10
-8 -23 -12 -28 -9 -5 3 -9 0 -7 -7 3 -26 -1 -40 -10 -35 -5 4 -8 -5 -6 -19 3
-28 -4 -31 -25 -12 -12 10 -12 9 0 -7 13 -16 12 -20 -4 -31 -9 -7 -17 -16 -16
-19 2 -14 -44 -85 -51 -80 -5 3 -6 -1 -4 -9 7 -16 -63 -52 -120 -61 -64 -11
-75 -16 -75 -37 0 -23 -8 -22 190 -23 144 -1 325 -19 360 -35 8 -4 33 -4 55 0
22 4 66 8 98 8 49 1 60 4 64 20 3 14 23 24 68 37 35 9 63 21 62 27 -1 5 23 19
54 30 75 28 114 16 194 -58 81 -74 132 -108 223 -146 42 -17 89 -40 104 -50
34 -25 48 -24 49 4 3 136 19 288 40 367 12 48 64 95 119 108 45 11 65 8 42 -7
-10 -6 -7 -14 12 -32 16 -16 22 -28 16 -39 -14 -26 -4 -321 12 -358 8 -18 17
-30 20 -26 3 3 42 -28 87 -68 101 -92 215 -153 284 -152 26 0 52 5 58 11 18
18 -23 33 -72 27 -54 -7 -121 18 -144 52 -9 14 -29 30 -43 35 -23 8 -27 16
-30 50 -3 40 -1 41 23 37 39 -8 38 5 -5 47 -22 22 -40 45 -40 53 0 7 -4 10
-10 7 -13 -8 -25 45 -14 62 16 25 29 19 32 -15 3 -28 6 -31 18 -21 16 13 64
-2 64 -21 0 -5 9 -10 20 -10 11 0 37 -16 59 -35 21 -19 48 -35 59 -35 12 0 29
-11 38 -25 9 -14 21 -25 28 -25 6 0 27 -14 46 -30 l35 -28 -24 -26 c-18 -19
-30 -24 -50 -20 -45 11 -112 43 -143 69 -17 14 -33 23 -36 20 -7 -7 39 -55 53
-55 7 0 32 -16 56 -35 24 -19 45 -31 47 -27 3 9 178 9 188 0 15 -16 24 -7 24
22 0 21 -6 33 -19 38 -11 4 -33 26 -50 48 -36 51 -91 94 -123 97 -36 4 -68 26
-68 48 0 32 -59 96 -142 155 -43 30 -78 60 -78 67 0 6 -21 31 -46 54 -47 42
-47 42 -30 67 12 19 13 26 4 27 -7 0 -28 2 -47 3 -37 3 -74 37 -65 61 3 8 2
20 -3 27 -14 22 -11 140 4 193 8 28 19 64 24 81 5 17 9 39 9 50 0 11 5 25 11
31 7 7 14 31 16 54 3 29 12 50 29 66 43 40 49 37 207 -113 90 -86 128 -112
182 -124 21 -5 35 -2 44 7 12 13 19 9 56 -27 23 -22 55 -44 71 -49 25 -6 29
-11 26 -39 -2 -18 1 -32 6 -32 6 0 8 -9 5 -21 -8 -29 -48 -52 -81 -46 -64 12
-278 -44 -296 -78 -5 -11 -19 -33 -29 -48 -30 -45 -15 -79 69 -160 90 -86 150
-123 224 -135 30 -6 69 -16 87 -23 24 -10 37 -10 57 -1 23 10 25 14 15 36 -7
14 -25 30 -41 37 -39 16 -59 48 -80 131 -17 67 -16 89 6 117 6 7 18 32 27 55
13 32 23 42 45 46 20 4 35 18 55 55 16 28 28 58 29 68 0 10 12 44 26 75 15 31
26 68 25 82 -1 14 -3 51 -5 82 -1 31 -8 64 -15 72 -6 8 -8 16 -3 18 12 4 62
78 62 90 0 6 -7 8 -15 4 -18 -7 -20 15 -3 32 9 9 9 12 0 12 -7 0 -9 7 -5 17 5
12 2 15 -10 10 -13 -5 -17 0 -18 21 0 15 -3 21 -6 15 -7 -19 -23 -16 -23 5 0
9 -14 30 -30 46 -17 16 -30 39 -31 50 0 12 -3 15 -6 9 -7 -18 -23 -16 -23 2 0
8 -5 15 -11 15 -6 0 -9 6 -7 12 3 7 11 13 19 13 9 0 23 8 33 18 10 9 23 17 31
17 7 0 32 24 55 53 23 28 46 51 51 50 4 -2 24 18 45 42 21 26 45 45 56 45 11
0 22 8 25 19 6 25 105 50 128 31 20 -16 47 -6 38 16 -5 14 0 15 43 10 75 -9
134 -30 134 -47 0 -5 23 -33 51 -63 130 -140 179 -228 209 -377 15 -73 17
-106 10 -172 -9 -82 -34 -192 -64 -277 -25 -70 -89 -191 -100 -187 -5 2 -17
19 -27 38 -10 18 -33 46 -50 61 -19 16 -29 32 -26 42 7 17 -5 22 -64 30 -31 5
-50 2 -63 -9 -19 -14 -19 -16 -2 -34 10 -11 15 -25 11 -30 -3 -7 2 -11 14 -11
12 0 21 -7 21 -15 0 -8 5 -15 11 -15 16 0 78 -60 105 -103 31 -47 27 -92 -12
-148 -29 -43 -50 -57 -62 -44 -4 4 -1 10 6 12 6 3 12 14 12 26 0 12 4 29 9 36
13 20 -3 47 -31 55 -13 4 -40 28 -62 53 -31 38 -35 49 -25 57 28 22 13 76 -22
76 -10 0 -19 4 -19 9 0 15 -93 21 -110 6 -8 -7 -25 -16 -37 -19 -30 -9 -68
-62 -52 -72 8 -5 5 -12 -11 -24 l-22 -16 26 -31 c24 -29 51 -81 48 -94 -1 -4
10 -10 23 -13 14 -4 25 -11 25 -17 0 -6 9 -8 20 -4 13 4 20 2 20 -7 0 -18 26
-40 84 -68 43 -20 52 -22 83 -11 19 7 36 11 38 9 8 -8 -126 -268 -162 -313
-62 -77 -252 -261 -312 -301 -65 -44 -137 -80 -256 -129 -70 -28 -113 -38
-190 -46 -55 -5 -122 -14 -148 -19 -74 -15 -130 -12 -188 12 -82 33 -129 66
-143 98 l-12 30 -12 -45 c-6 -24 -25 -59 -42 -78 -16 -19 -30 -37 -30 -40 0
-2 53 -4 118 -4 145 0 401 -9 407 -14 2 -3 -12 -25 -31 -49 -38 -48 -88 -85
-176 -130 -88 -46 -189 -114 -235 -159 l-42 -40 -3 35 c-3 34 -4 34 -25 19
-21 -14 -23 -25 -23 -95 0 -43 5 -82 10 -85 12 -7 13 -45 2 -45 -5 0 -9 -6 -9
-12 0 -14 -13 -144 -17 -168 -8 -54 -20 -97 -31 -110 -7 -8 -16 -30 -20 -49
-4 -19 -20 -55 -35 -81 -15 -26 -31 -56 -34 -67 -13 -40 -41 -55 -95 -52 -28
2 -51 1 -51 -2 0 -3 23 -11 52 -19 58 -15 125 -50 95 -50 -23 0 -59 -33 -56
-51 4 -26 -13 -69 -28 -69 -8 0 -11 -5 -8 -10 3 -6 -1 -13 -9 -16 -9 -3 -16
-10 -16 -16 0 -5 -11 -24 -25 -42 -14 -18 -22 -36 -18 -39 3 -4 0 -7 -8 -7
-20 0 -46 -33 -41 -50 3 -9 -1 -11 -12 -7 -10 4 -16 1 -16 -7 0 -8 5 -16 12
-18 17 -6 -48 -68 -70 -68 -12 0 -26 -18 -43 -54 -16 -38 -27 -52 -35 -45 -6
5 -20 6 -29 2 -14 -5 -17 -3 -12 10 5 14 3 15 -12 5 -11 -6 -17 -17 -14 -24 3
-9 -2 -11 -17 -7 -13 4 -19 11 -16 20 4 9 -6 19 -29 29 -30 12 -35 19 -35 47
0 24 3 28 10 17 8 -12 10 -11 10 8 0 12 6 22 13 22 8 1 6 5 -4 13 -12 9 -14
18 -8 36 5 12 11 37 14 54 3 18 14 39 25 49 11 9 15 18 9 20 -7 2 -5 13 5 32
8 16 12 35 9 42 -3 8 0 21 7 29 7 8 9 15 5 15 -4 0 -3 6 3 12 5 7 13 33 17 57
5 30 13 45 26 48 21 6 25 19 8 25 -8 3 -5 10 6 21 9 10 26 53 37 95 23 93 36
109 69 92 l24 -13 -24 26 c-19 21 -22 32 -17 61 5 24 12 36 23 36 12 0 14 3 7
10 -7 7 -8 28 -2 63 5 29 13 76 17 105 4 30 12 57 17 60 16 12 44 69 44 89 0
11 -11 30 -25 43 -21 20 -25 33 -25 81 0 48 3 57 15 53 8 -4 15 -12 15 -20 0
-8 4 -14 8 -14 5 0 7 13 4 30 -2 16 -1 38 3 47 5 15 10 12 25 -17 10 -20 20
-51 22 -70 3 -32 13 -49 30 -50 3 0 12 17 19 38 15 47 101 192 110 186 4 -2
10 9 14 25 3 16 15 37 26 47 10 9 19 20 19 24 0 13 -72 20 -92 9 -34 -18 -32
-1 9 78 l39 78 -12 77 c-17 109 -32 148 -55 148 -24 0 -24 -17 1 -108 32 -113
29 -127 -37 -192 -64 -62 -111 -126 -156 -210 -40 -74 -62 -97 -131 -131 -40
-20 -73 -29 -106 -29 -27 0 -61 -5 -75 -10 -49 -19 -49 2 1 47 l49 44 -58 -4
c-32 -2 -60 -1 -62 3 -2 3 7 30 21 60 28 61 38 125 35 228 -1 65 -5 77 -34
115 -18 23 -50 78 -72 121 l-40 79 -8 -41 c-8 -43 -10 -43 -62 -22 -11 4 -36
14 -55 21 -19 7 -50 24 -69 37 -33 25 -34 25 -29 4 9 -32 -10 -48 -84 -72 -50
-17 -77 -20 -105 -15 -21 5 -47 10 -57 12 -11 2 -23 -2 -27 -8 -5 -9 -19 -6
-49 10 -52 27 -62 20 -27 -17 15 -16 27 -35 27 -44 0 -23 -63 -30 -105 -12
l-35 14 0 -1285 0 -1285 1411 0 1411 0 -5 27 c-3 16 -15 78 -26 138 -12 64
-19 126 -15 148 3 20 2 37 -3 37 -16 0 -14 184 2 225 9 20 14 39 11 42 -2 2
-7 -5 -11 -16 -3 -12 -11 -21 -16 -21 -12 0 -12 32 0 62 21 51 24 65 27 103 2
22 6 54 9 70 3 21 2 26 -4 15 -6 -8 -12 -12 -15 -9 -3 3 6 17 19 31 13 15 27
39 29 53 10 55 20 43 17 -20 -2 -41 13 -15 30 53 13 51 28 68 31 35 0 -10 4 9
8 42 4 33 18 132 32 220 26 157 38 259 40 341 1 41 1 41 29 31 15 -6 26 -14
23 -18 -2 -4 -1 -14 2 -23 4 -12 11 -13 31 -5 30 11 38 5 124 -85 38 -40 58
-54 61 -45 4 11 8 11 18 2 10 -10 11 -15 1 -27 -15 -18 -4 -67 13 -60 29 11
134 -169 143 -243 4 -38 2 -53 -12 -66 -22 -23 -42 -21 -50 4 -13 41 -17 9 -6
-58 6 -37 18 -113 27 -168 8 -55 18 -151 21 -212 3 -62 10 -113 14 -113 5 0
10 10 10 23 1 13 4 8 8 -13 4 -22 12 -35 21 -35 12 0 16 20 20 95 6 104 13
125 42 141 17 9 18 20 14 152 -6 158 -18 262 -39 323 -32 88 -106 181 -248
309 -31 28 -68 69 -83 93 -14 23 -58 75 -97 115 -76 79 -72 64 -54 175 9 57
72 245 107 321 21 46 43 106 48 133 6 27 13 54 16 60 8 12 54 -32 91 -86 15
-23 57 -75 94 -116 36 -41 75 -86 85 -99 10 -13 36 -41 57 -63 20 -22 37 -43
37 -48 0 -5 4 -10 8 -12 4 -1 25 -24 47 -50 22 -27 44 -48 50 -48 5 0 3 5 -5
10 -8 5 -11 10 -7 10 4 0 -3 15 -17 33 -15 19 -26 39 -26 45 0 18 19 24 37 12
14 -9 14 -10 2 -7 -9 3 -16 0 -16 -7 0 -6 8 -12 18 -12 10 0 17 3 17 6 -2 21
3 34 10 25 4 -6 25 -15 47 -21 22 -5 39 -15 38 -22 -2 -7 6 -12 16 -12 31 0
51 -11 51 -27 0 -13 2 -13 17 -2 12 10 15 10 9 1 -9 -15 14 -40 32 -34 19 6
41 -17 37 -39 -2 -11 0 -17 6 -14 5 4 9 -5 9 -19 0 -26 0 -26 20 -6 11 11 17
26 14 34 -7 18 12 30 22 15 4 -8 3 -9 -4 -5 -7 4 -12 2 -12 -5 0 -7 8 -9 21
-6 13 3 19 1 16 -6 -3 -7 -11 -11 -18 -9 -8 1 -3 -7 11 -18 14 -11 18 -19 10
-18 -8 2 -18 7 -21 11 -3 4 -14 5 -23 1 -17 -7 -17 -8 2 -18 11 -6 21 -15 21
-19 0 -4 7 -15 16 -23 17 -18 35 -11 35 14 0 15 2 15 10 2 8 -13 10 -12 10 3
0 9 -5 17 -11 17 -12 0 -38 29 -39 43 0 4 7 7 15 7 8 0 15 -9 15 -20 0 -11 5
-20 10 -20 6 0 10 7 10 16 0 9 5 12 12 8 8 -5 9 0 6 14 -4 12 -2 20 3 16 13
-8 11 -52 -3 -56 -6 -2 -8 -10 -4 -16 5 -8 13 -9 23 -3 9 4 24 6 34 4 16 -5
16 -6 1 -24 -9 -10 -20 -19 -25 -19 -5 0 -4 7 3 15 11 13 10 14 -4 9 -17 -7
-22 -34 -6 -34 6 0 12 1 15 3 2 1 10 -6 18 -16 12 -17 14 -17 26 -3 12 14 10
16 -8 16 -11 0 -21 4 -21 8 0 14 36 43 43 36 4 -4 -1 -14 -11 -22 -13 -11 -12
-11 9 1 37 22 52 7 55 -54 1 -30 7 -55 13 -57 6 -2 9 -7 7 -11 -3 -4 1 -8 9
-8 18 0 20 13 3 20 -10 4 -10 8 2 16 8 5 18 7 22 5 4 -3 8 0 8 5 0 13 -10 14
-30 1 -11 -7 -17 -5 -21 8 -7 18 39 68 50 56 3 -4 0 -9 -7 -11 -7 -3 -17 -14
-23 -25 -9 -18 -8 -19 10 -13 12 3 33 8 49 10 15 2 28 4 29 4 1 1 -4 22 -12
48 -8 27 -16 62 -19 78 -3 17 -15 72 -26 124 -61 288 -122 804 -122 1046 0
120 26 306 68 495 40 182 81 309 139 440 133 297 200 412 265 455 17 11 28 25
26 31 -3 6 1 17 7 24 10 10 6 11 -15 8 -16 -3 -28 -1 -28 4 0 5 -4 6 -10 3 -5
-3 -10 1 -10 9 0 9 -3 15 -7 15 -31 -5 -48 23 -21 34 8 4 5 8 -9 12 -13 4 -24
18 -28 36 -4 16 -10 29 -15 29 -4 0 -10 9 -13 21 -4 14 -10 18 -19 13 -11 -6
-11 -5 0 8 11 14 10 17 -6 23 -11 3 -23 16 -26 28 -3 12 -17 27 -31 34 -24 11
-25 10 -13 -5 9 -12 6 -11 -10 2 -12 11 -20 26 -18 33 4 10 1 11 -14 3 -24
-13 -43 -13 -35 0 7 11 6 11 -47 15 -21 1 -38 -2 -38 -7 0 -5 -5 -6 -11 -2 -8
4 -7 9 2 15 19 12 6 20 -32 21 -19 1 -39 8 -46 17 -7 9 -13 12 -13 8 0 -4 -10
2 -22 13 l-23 21 -4 -28 -4 -28 -6 25 c-5 19 -13 25 -34 24 -15 0 -27 4 -27 8
0 5 -12 6 -27 4 -15 -3 -33 0 -40 6 -7 5 -22 8 -33 5 -12 -3 -23 1 -29 10 -7
13 -9 13 -14 -1 -4 -10 -3 -15 1 -12 5 3 9 0 9 -7 0 -7 -11 -12 -23 -12 -15 0
-20 3 -14 9 13 13 13 26 -1 26 -5 0 -8 -4 -5 -9 11 -17 -19 -19 -38 -2 -11 9
-16 11 -13 4 4 -6 4 -13 0 -16 -5 -2 -2 -2 5 0 7 1 10 -2 7 -7 -10 -17 -25
-11 -37 15 -9 20 -14 22 -29 14 -13 -6 -19 -6 -19 1 0 5 -7 10 -16 10 -13 0
-14 3 -5 14 9 11 9 16 0 22 -8 4 -9 3 -5 -4 4 -7 1 -12 -8 -12 -10 0 -13 6
-10 15 5 12 -2 15 -28 15 -19 0 -38 3 -42 8 -10 9 -66 11 -60 1 2 -4 15 -6 29
-5 13 2 23 0 20 -3 -2 -4 -28 -8 -57 -8 -29 0 -47 1 -40 4 6 3 12 12 12 20 0
14 -2 14 -18 0 -10 -10 -23 -17 -28 -17 -5 0 -2 5 6 10 10 6 11 10 3 10 -8 0
-13 13 -13 31 0 17 -4 28 -10 24 -6 -3 -10 2 -10 12 -1 15 -3 14 -14 -6 -8
-15 -16 -20 -20 -12 -4 6 -2 11 3 11 6 0 11 5 11 10 0 7 -580 10 -1720 10
l-1720 0 0 -563z m3772 371 c-7 -7 -12 -8 -12 -2 0 6 3 14 7 17 3 4 9 5 12 2
2 -3 -1 -11 -7 -17z m683 -158 c3 -5 1 -10 -4 -10 -6 0 -11 5 -11 10 0 6 2 10
4 10 3 0 8 -4 11 -10z m-4120 -429 c3 -5 2 -12 -3 -15 -5 -3 -9 1 -9 9 0 17 3
19 12 6z m1938 -266 c-3 -8 -9 -15 -14 -15 -10 0 -12 24 -3 33 11 11 24 -3 17
-18z m52 -55 c0 -7 -6 -15 -12 -17 -8 -3 -13 4 -13 17 0 13 5 20 13 18 6 -3
12 -11 12 -18z m-55 -95 c0 -8 -4 -15 -9 -15 -13 0 -22 16 -14 24 11 11 23 6
23 -9z m-40 -65 c0 -5 -2 -10 -4 -10 -3 0 -8 5 -11 10 -3 6 -1 10 4 10 6 0 11
-4 11 -10z m117 -27 c-3 -10 -5 -4 -5 12 0 17 2 24 5 18 2 -7 2 -21 0 -30z
m1217 -141 c3 -5 -1 -9 -9 -9 -8 0 -12 4 -9 9 3 4 7 8 9 8 2 0 6 -4 9 -8z m77
-22 c6 0 7 5 4 10 -3 6 -2 10 4 10 6 0 8 -16 5 -37 -3 -21 -2 -33 3 -28 4 6
16 16 25 23 14 12 16 10 10 -10 -5 -22 -5 -22 13 -5 14 14 20 16 26 6 4 -7 5
-17 2 -23 -3 -5 -1 -6 5 -2 6 4 9 13 6 20 -3 8 -1 17 4 20 5 3 7 -10 5 -32 -3
-30 -2 -35 8 -24 18 17 49 15 49 -4 0 -8 3 -13 8 -10 4 2 6 -14 4 -36 -4 -32
-2 -39 9 -32 24 14 37 13 34 -5 -2 -9 -4 -19 -4 -23 -1 -5 -11 -8 -23 -9 l-23
-1 23 -6 c13 -4 23 -11 22 -17 -1 -5 3 -11 9 -13 6 -2 11 1 11 8 0 6 -5 8 -10
5 -6 -4 -5 5 2 19 6 14 16 26 21 26 5 0 4 -7 -4 -16 -10 -12 -10 -17 0 -23 7
-5 13 -12 14 -17 1 -5 12 -9 25 -8 23 1 30 -10 12 -21 -5 -3 -10 -2 -10 2 0 5
-14 9 -32 8 -23 0 -32 -5 -34 -20 -3 -20 -3 -20 12 -1 8 11 14 14 14 7 0 -7 4
-10 9 -7 15 10 41 -5 41 -22 0 -13 3 -12 15 4 11 14 14 15 9 3 -3 -10 -1 -20
5 -24 6 -3 11 1 11 9 0 10 9 16 26 16 14 0 23 -4 19 -10 -3 -5 -1 -10 4 -10 6
0 11 -7 11 -16 0 -11 -5 -14 -17 -10 -10 4 -14 4 -10 0 4 -4 0 -16 -10 -26
-15 -17 -15 -18 8 -18 18 0 21 -2 9 -9 -8 -6 -19 -7 -25 -3 -5 3 -4 -1 3 -10
11 -13 9 -17 -13 -22 -14 -4 -25 -11 -25 -17 0 -6 6 -7 13 -4 6 4 4 0 -5 -8
-10 -8 -15 -17 -11 -21 4 -4 0 -4 -10 0 -10 3 -17 1 -17 -6 0 -6 -4 -9 -9 -6
-4 3 -16 -3 -26 -14 -10 -11 -21 -17 -26 -15 -4 3 -10 1 -14 -4 -3 -6 -12 -8
-19 -5 -8 3 -20 -3 -27 -13 -17 -23 -50 -27 -47 -5 2 8 -3 17 -11 20 -9 3 -12
0 -9 -10 6 -15 -17 -18 -38 -6 -6 4 -18 -2 -27 -13 -19 -22 -39 -26 -31 -5 3
9 -4 15 -20 18 -14 3 -23 2 -21 -3 3 -4 -4 -5 -15 -2 -17 5 -18 8 -8 21 11 13
11 14 0 8 -7 -4 -19 -2 -27 4 -12 10 -16 9 -21 -4 -5 -13 -11 -10 -36 14 -16
17 -36 30 -43 30 -8 0 -16 4 -19 9 -4 5 3 7 14 4 11 -3 20 0 20 6 0 6 -3 10
-7 10 -20 -3 -33 2 -33 14 0 7 -9 18 -21 25 -12 7 -18 16 -15 19 3 3 -2 12
-12 19 -13 10 -14 15 -5 25 6 6 9 18 6 25 -3 8 -1 14 4 14 5 0 10 19 11 43 4
64 43 198 63 215 10 9 16 20 13 26 -3 6 6 -2 21 -19 16 -19 23 -23 19 -11 -6
15 -4 17 7 11 11 -7 12 -6 2 7 -7 8 -10 18 -6 21 3 4 12 -1 20 -11 10 -11 12
-12 8 -2 -4 9 -1 8 8 -3 11 -13 16 -15 20 -5 3 10 9 9 23 -4 14 -12 24 -14 34
-7 13 8 12 12 -8 28 -15 13 -18 21 -10 24 7 2 14 -2 16 -10 2 -7 8 -13 13 -13z
m54 20 c3 -5 1 -10 -4 -10 -6 0 -11 5 -11 10 0 6 2 10 4 10 3 0 8 -4 11 -10z
m-3245 -15 c0 -8 -2 -15 -4 -15 -2 0 -6 7 -10 15 -3 8 -1 15 4 15 6 0 10 -7
10 -15z m2420 -99 c0 -3 -4 -8 -10 -11 -5 -3 -10 -1 -10 4 0 6 5 11 10 11 6 0
10 -2 10 -4z m48 -33 c2 -8 -5 -13 -17 -13 -21 0 -35 13 -24 24 10 10 36 3 41
-11z m960 12 c-10 -10 -49 -14 -43 -4 4 5 16 9 27 9 12 0 19 -2 16 -5z m-941
-41 c-3 -3 -12 -4 -19 -1 -8 3 -5 6 6 6 11 1 17 -2 13 -5z m1127 -154 c-6 -5
-24 21 -24 34 0 6 6 1 14 -10 8 -10 12 -21 10 -24z m-34 -40 c0 -5 -5 -10 -11
-10 -5 0 -7 5 -4 10 3 6 8 10 11 10 2 0 4 -4 4 -10z m34 3 c-5 -5 -12 -12 -16
-18 -4 -6 -8 -2 -8 8 0 9 7 17 17 17 9 0 12 -3 7 -7z m-504 -174 c0 -6 -4 -7
-10 -4 -5 3 -10 11 -10 16 0 6 5 7 10 4 6 -3 10 -11 10 -16z m-2391 -1161 c-9
-17 -14 -19 -17 -8 -3 7 0 16 7 18 6 2 11 11 12 20 0 10 3 12 5 5 3 -7 0 -22
-7 -35z m2778 -55 c-3 -3 -11 -2 -17 2 -9 6 -9 10 1 16 14 8 27 -7 16 -18z
m168 17 c3 -6 -1 -7 -9 -4 -18 7 -21 14 -7 14 6 0 13 -4 16 -10z m65 -66 c0
-24 -2 -25 -17 -13 -11 10 -14 10 -9 2 5 -10 1 -11 -17 -4 -14 6 -28 7 -32 3
-3 -3 -3 1 0 9 4 11 16 15 36 13 16 -2 29 1 29 6 0 6 2 10 5 10 3 0 5 -12 5
-26z m-152 -45 c-3 -8 -7 -3 -11 10 -4 17 -3 21 5 13 5 -5 8 -16 6 -23z
m-1161 -391 c-3 -7 -5 -2 -5 12 0 14 2 19 5 13 2 -7 2 -19 0 -25z m-15 -40
c-7 -7 -12 -8 -12 -2 0 14 12 26 19 19 2 -3 -1 -11 -7 -17z m-1952 -198 c0 -5
-5 -10 -11 -10 -5 0 -7 5 -4 10 3 6 8 10 11 10 2 0 4 -4 4 -10z m1887 -22 c-3
-8 -6 -5 -6 6 -1 11 2 17 5 13 3 -3 4 -12 1 -19z m-1933 -105 c-6 -2 -9 -15
-6 -28 2 -15 0 -25 -7 -25 -6 0 -11 10 -11 23 0 24 20 51 29 40 3 -3 1 -8 -5
-10z m-16 -116 c-5 -18 -9 -46 -9 -63 1 -18 -4 -34 -12 -37 -10 -4 -13 4 -13
28 1 18 4 37 8 41 4 4 5 18 2 30 -9 35 2 59 20 45 11 -9 12 -19 4 -44z m1932
-110 c0 -7 -7 -22 -15 -33 -13 -17 -14 -16 -4 14 11 33 19 41 19 19z m-1863
-67 c14 -11 21 -20 15 -20 -6 0 -15 -12 -20 -27 l-10 -28 -1 27 c-1 21 -5 25
-21 21 -23 -6 -25 0 -10 28 13 24 16 24 47 -1z m1734 -33 c-10 -9 -11 -8 -5 6
3 10 9 15 12 12 3 -3 0 -11 -7 -18z m-1786 -58 c-10 -15 -25 -10 -19 6 4 8 10
12 15 9 5 -3 7 -10 4 -15z"/>
<path d="M3470 3504 c0 -8 5 -12 10 -9 6 4 8 11 5 16 -9 14 -15 11 -15 -7z"/>
<path d="M3841 3384 c0 -11 3 -14 6 -6 3 7 2 16 -1 19 -3 4 -6 -2 -5 -13z"/>
<path d="M3935 3110 c-3 -5 -1 -10 4 -10 6 0 11 5 11 10 0 6 -2 10 -4 10 -3 0
-8 -4 -11 -10z"/>
<path d="M4689 4393 c-13 -16 -12 -17 4 -4 16 13 21 21 13 21 -2 0 -10 -8 -17
-17z"/>
<path d="M4979 4273 c-5 -48 -6 -233 -1 -233 7 0 8 -52 2 -75 -1 -5 -2 -13 -1
-17 0 -5 -2 -8 -6 -8 -18 1 -31 17 -36 45 -3 17 -8 41 -12 55 -4 14 -12 51
-18 83 -6 31 -14 57 -18 57 -17 0 -30 -33 -35 -86 -3 -33 -7 -61 -9 -63 -3 -2
0 -12 6 -22 5 -11 6 -19 1 -19 -15 0 -6 -120 11 -167 13 -35 13 -41 1 -36 -20
7 -29 -25 -16 -59 5 -15 6 -26 1 -22 -5 3 -9 1 -9 -5 0 -5 5 -13 10 -16 6 -4
7 -12 1 -22 -5 -10 -5 -29 0 -47 6 -21 5 -32 -4 -38 -12 -7 -10 -9 15 -12 6 0
13 -8 15 -16 4 -13 3 -13 -6 0 -9 13 -11 12 -11 -3 0 -32 23 -46 63 -37 27 6
37 4 41 -7 3 -8 10 -12 14 -9 5 3 9 -2 9 -10 0 -9 -11 -20 -24 -25 -12 -5 -23
-11 -23 -14 0 -4 4 -3 10 0 7 4 7 -2 1 -18 -6 -14 -7 -27 -4 -30 12 -13 10
-64 -3 -64 -10 0 -11 4 -3 14 9 10 7 13 -6 13 -14 0 -15 3 -6 14 8 10 9 21 3
33 -5 10 -7 24 -5 31 3 6 -1 12 -7 12 -7 0 -10 7 -7 14 6 16 -26 32 -43 21 -9
-6 -6 -38 7 -75 3 -8 5 -35 3 -59 -1 -32 2 -41 11 -36 9 6 10 2 6 -16 -4 -13
-7 -30 -7 -36 0 -7 -8 -13 -17 -13 -16 -1 -16 -2 1 -15 10 -8 20 -25 20 -37 1
-13 7 -32 13 -43 9 -16 8 -24 -5 -39 -16 -18 -16 -18 8 -6 21 10 23 10 13 -1
-7 -7 -12 -22 -12 -34 1 -16 2 -17 6 -2 2 9 8 17 11 17 4 0 7 29 7 65 0 36 -3
65 -7 65 -5 0 -8 9 -8 19 0 11 -6 21 -12 24 -10 3 -9 8 2 22 8 10 13 21 11 24
-3 3 3 7 12 9 12 2 15 -1 11 -12 -3 -9 -10 -16 -15 -16 -5 0 -9 -7 -9 -15 0
-8 5 -15 11 -15 5 0 8 4 5 8 -3 5 1 9 9 9 8 0 14 -3 13 -6 -2 -20 4 -29 20
-27 16 3 17 35 20 481 2 288 -1 490 -7 506 -7 20 -6 29 2 32 8 2 8 5 -1 11 -7
4 -12 4 -13 -1z m-84 -804 c11 -16 1 -19 -13 -3 -7 8 -8 14 -3 14 5 0 13 -5
16 -11z m15 -99 c0 -5 -5 -10 -11 -10 -5 0 -7 5 -4 10 3 6 8 10 11 10 2 0 4
-4 4 -10z"/>
<path d="M430 3605 c-9 -10 -9 -15 -1 -15 6 0 11 5 11 11 0 5 5 7 12 3 7 -4 8
-3 4 4 -9 15 -11 15 -26 -3z"/>
<path d="M475 3551 c-3 -5 -1 -12 4 -15 5 -3 11 1 15 9 6 16 -9 21 -19 6z"/>
<path d="M216 3255 c-9 -26 -7 -32 5 -12 6 10 9 21 6 23 -2 3 -7 -2 -11 -11z"/>
<path d="M4930 3240 c0 -5 5 -10 11 -10 5 0 7 5 4 10 -3 6 -8 10 -11 10 -2 0
-4 -4 -4 -10z"/>
<path d="M4957 3209 c-6 -21 8 -27 16 -6 4 9 6 9 6 -1 1 -7 -9 -17 -21 -22
-13 -5 -17 -9 -10 -9 7 -1 12 -8 10 -17 -2 -10 3 -19 10 -21 8 -3 10 1 5 12
-4 11 0 21 10 26 9 5 13 17 10 28 -7 27 -30 34 -36 10z"/>
<path d="M4868 3203 c7 -3 16 -2 19 1 4 3 -2 6 -13 5 -11 0 -14 -3 -6 -6z"/>
<path d="M4951 3084 c0 -11 3 -14 6 -6 3 7 2 16 -1 19 -3 4 -6 -2 -5 -13z"/>
<path d="M4900 3041 c0 -5 5 -13 10 -16 6 -3 10 -2 10 4 0 5 -4 13 -10 16 -5
3 -10 2 -10 -4z"/>
<path d="M4919 2998 c0 -7 -2 -23 -5 -35 -2 -12 1 -25 7 -29 7 -4 10 -1 7 7
-3 8 -1 26 3 42 4 15 4 27 -2 27 -5 0 -9 -6 -10 -12z"/>
<path d="M4957 3003 c-3 -5 -1 -17 4 -28 4 -11 8 -15 8 -8 1 6 4 18 7 27 6 16
-11 23 -19 9z"/>
<path d="M2493 2928 c-26 -44 -63 -142 -63 -168 0 -11 45 -4 68 11 12 7 24 25
26 39 13 67 16 127 9 148 -8 21 -11 19 -40 -30z"/>
<path d="M1577 2858 c-2 -7 2 -26 9 -43 7 -16 17 -75 23 -130 16 -143 21 -164
14 -60 -3 50 -7 119 -9 154 -1 35 -5 69 -8 77 -7 17 -23 18 -29 2z"/>
<path d="M1128 2733 c7 -3 16 -2 19 1 4 3 -2 6 -13 5 -11 0 -14 -3 -6 -6z"/>
<path d="M1165 2730 c3 -5 13 -10 21 -10 8 0 12 5 9 10 -3 6 -13 10 -21 10 -8
0 -12 -4 -9 -10z"/>
<path d="M4183 1693 c-3 -10 -8 -21 -10 -26 -3 -4 1 -6 9 -5 7 2 12 -3 10 -10
-1 -8 2 -11 8 -7 6 4 9 10 6 13 -3 3 -1 11 5 19 9 10 8 13 0 13 -7 0 -9 5 -6
10 3 6 1 10 -5 10 -6 0 -13 -8 -17 -17z"/>
<path d="M4000 1672 c-13 -14 -12 -15 3 -9 24 9 78 -3 70 -16 -4 -6 -1 -7 6
-2 16 9 2 24 -27 30 -12 2 -25 6 -30 8 -4 3 -14 -2 -22 -11z"/>
<path d="M4120 1647 c0 -10 8 -17 18 -17 9 0 13 4 7 8 -5 4 -13 11 -17 16 -5
5 -8 2 -8 -7z"/>
<path d="M4046 1633 c-6 -14 -5 -15 5 -6 7 7 10 15 7 18 -3 3 -9 -2 -12 -12z"/>
<path d="M4307 1629 c-3 -11 -1 -17 4 -13 5 3 9 0 9 -5 0 -6 4 -11 10 -11 5 0
7 7 4 15 -4 8 -2 15 4 15 13 0 9 -27 -6 -42 -7 -7 -12 -17 -12 -24 0 -13 27
-27 39 -19 4 2 8 -2 8 -10 0 -11 -5 -12 -21 -3 -19 10 -19 9 -8 -5 7 -8 22
-15 32 -14 14 1 16 4 8 14 -6 7 -7 13 -3 13 5 0 1 8 -8 18 -10 11 -14 30 -12
53 3 33 1 37 -20 37 -14 0 -25 -8 -28 -19z"/>
<path d="M4200 1630 c-13 -8 -12 -10 3 -10 9 0 17 5 17 10 0 12 -1 12 -20 0z"/>
<path d="M4075 1620 c3 -5 8 -10 11 -10 2 0 4 5 4 10 0 6 -5 10 -11 10 -5 0
-7 -4 -4 -10z"/>
<path d="M4125 1610 c-4 -6 -10 -8 -15 -5 -5 3 -12 0 -16 -6 -4 -8 -3 -9 4 -5
7 4 12 3 12 -3 0 -5 -6 -12 -12 -14 -8 -4 -9 -6 -2 -6 7 -1 19 10 28 24 9 14
14 25 12 25 -3 0 -8 -5 -11 -10z"/>
<path d="M4165 1599 c5 -14 4 -19 -4 -15 -7 5 -8 1 -4 -10 5 -15 7 -15 15 0 5
9 13 14 19 11 5 -4 9 -1 9 4 0 6 -7 11 -16 11 -8 0 -12 5 -9 10 3 6 1 10 -5
10 -7 0 -9 -8 -5 -21z"/>
<path d="M4133 1565 c0 -8 4 -12 9 -9 5 3 6 10 3 15 -9 13 -12 11 -12 -6z"/>
<path d="M4270 1556 c0 -17 14 -29 23 -20 8 8 -3 34 -14 34 -5 0 -9 -6 -9 -14z"/>
<path d="M4105 1550 c-3 -5 -1 -10 4 -10 6 0 11 5 11 10 0 6 -2 10 -4 10 -3 0
-8 -4 -11 -10z"/>
<path d="M4228 1548 c5 -5 16 -8 23 -6 8 3 3 7 -10 11 -17 4 -21 3 -13 -5z"/>
<path d="M3051 1523 c0 -12 -10 -46 -21 -74 -12 -28 -19 -53 -17 -56 9 -9 48
101 44 125 -3 22 -4 23 -6 5z"/>
<path d="M4182 1525 c-11 -13 -10 -15 5 -12 10 1 19 7 21 12 6 16 -12 15 -26
0z"/>
<path d="M4223 1503 c-3 -7 -10 -10 -16 -6 -6 3 -7 1 -3 -6 6 -9 11 -9 21 -1
10 8 14 7 17 -4 2 -12 7 -13 18 -5 11 8 12 12 2 16 -6 2 -10 8 -8 12 3 4 -2 8
-10 8 -9 0 -18 -6 -21 -14z"/>
<path d="M4280 1508 c0 -10 2 -18 4 -18 2 0 11 -3 20 -6 9 -3 16 -1 16 6 0 6
-4 9 -9 5 -6 -3 -14 3 -20 12 -10 17 -10 17 -11 1z"/>
<path d="M4330 1492 c0 -5 7 -9 15 -9 8 0 15 4 15 9 0 4 -7 8 -15 8 -8 0 -15
-4 -15 -8z"/>
<path d="M4372 1474 c-7 -14 -8 -23 -3 -20 5 4 11 3 14 -1 2 -5 2 -3 1 4 -2 7
1 15 6 18 12 8 13 25 2 25 -5 0 -14 -12 -20 -26z"/>
<path d="M4253 1453 c9 -2 15 -8 13 -12 -3 -4 1 -8 9 -8 11 0 12 4 4 14 -6 7
-19 12 -28 12 -13 -1 -13 -2 2 -6z"/>
<path d="M4319 1443 c-13 -16 -12 -17 4 -4 9 7 17 15 17 17 0 8 -8 3 -21 -13z"/>
<path d="M4356 1405 c-3 -8 -1 -15 3 -15 5 0 11 7 15 15 3 8 1 15 -3 15 -5 0
-11 -7 -15 -15z"/>
<path d="M4396 1386 c3 -8 12 -12 21 -9 12 5 12 7 1 14 -20 13 -28 11 -22 -5z"/>
<path d="M2956 1243 c-6 -14 -5 -15 5 -6 7 7 10 15 7 18 -3 3 -9 -2 -12 -12z"/>
<path d="M1285 1100 c3 -5 8 -10 11 -10 2 0 4 5 4 10 0 6 -5 10 -11 10 -5 0
-7 -4 -4 -10z"/>
<path d="M940 969 c0 -5 5 -7 10 -4 6 3 10 8 10 11 0 2 -4 4 -10 4 -5 0 -10
-5 -10 -11z"/>
<path d="M1112 838 c-15 -15 -15 -28 -1 -28 5 0 8 4 5 9 -4 5 0 11 6 14 7 2
10 7 7 10 -3 4 -11 1 -17 -5z"/>
<path d="M2796 664 c-4 -14 -5 -28 -3 -31 3 -2 8 8 11 23 4 14 5 28 3 31 -3 2
-8 -8 -11 -23z"/>
<path d="M4683 586 c-6 -8 -13 -20 -14 -27 -5 -24 12 -79 22 -73 5 3 7 10 4
15 -4 5 -1 9 5 9 6 0 8 5 5 10 -4 6 -3 10 2 9 22 -4 31 3 36 28 7 40 -33 59
-60 29z"/>
<path d="M3424 225 c0 -126 2 -177 3 -112 2 65 2 168 0 230 -1 62 -3 9 -3
-118z"/>
<path d="M4815 230 c-7 -12 2 -30 16 -30 5 0 9 9 9 20 0 21 -15 27 -25 10z"/>
</g>
</svg>
